<svg xmlns="http://www.w3.org/2000/svg" xmlns:xlink="http://www.w3.org/1999/xlink" width="35" height="35" viewBox="0 0 35 35">
  <defs>
    <clipPath id="clip-Call_back_-_White">
      <rect width="35" height="35"/>
    </clipPath>
  </defs>
  <g id="Call_back_-_White" data-name="Call back - White" clip-path="url(#clip-Call_back_-_White)">
    <path id="communication" d="M11.5,5.5a2.308,2.308,0,0,1,0-3.282l2.016-2a.773.773,0,1,1,1.088,1.1L12.86,3.052h2.668A4.255,4.255,0,0,1,19.777,7.3l0,2.127a.773.773,0,0,1-.772.773h0a.772.772,0,0,1-.773-.772l0-2.127a2.707,2.707,0,0,0-2.7-2.7H12.782L14.605,6.4a.773.773,0,1,1-1.088,1.1Zm7.377,8.422a7.187,7.187,0,0,0-2.845-1.89,3.184,3.184,0,0,0-3.269.928l0,0-1.046,1.038a15.55,15.55,0,0,1-3.292-2.548l-.1-.1A15.653,15.653,0,0,1,5.774,8.062L6.811,7.018l0,0a3.184,3.184,0,0,0,.928-3.269A7.186,7.186,0,0,0,5.853.9,2.94,2.94,0,0,0,1.773.752L1.75.772,1.72.8A6.268,6.268,0,0,0,0,5.392C.017,8.568,1.763,12.2,4.671,15.108a18.829,18.829,0,0,0,1.852,1.613.773.773,0,1,0,.94-1.226,17.287,17.287,0,0,1-1.7-1.479c-2.627-2.627-4.2-5.853-4.217-8.631A4.773,4.773,0,0,1,2.8,1.907L2.8,1.9a1.389,1.389,0,0,1,1.935.07c2,2.074,1.855,3.054.971,3.96L4.28,7.374a.773.773,0,0,0-.157.859,15.613,15.613,0,0,0,3.106,4.216l.1.1a15.609,15.609,0,0,0,4.215,3.106A.773.773,0,0,0,12.4,15.5l1.443-1.432c.906-.884,1.886-1.029,3.96.971a1.39,1.39,0,0,1,.07,1.935l-.005.006a4.758,4.758,0,0,1-3.442,1.253h-.035a10.014,10.014,0,0,1-3.812-.9.773.773,0,0,0-.612,1.419,11.4,11.4,0,0,0,4.416,1.029h.043a6.255,6.255,0,0,0,4.548-1.719l.029-.03.02-.022a2.94,2.94,0,0,0-.147-4.08Zm0,0" transform="translate(7.999 8)" fill="#fff"/>
  </g>
</svg>
