<svg xmlns="http://www.w3.org/2000/svg" xmlns:xlink="http://www.w3.org/1999/xlink" width="35" height="35" viewBox="0 0 35 35">
  <defs>
    <clipPath id="clip-What_s_App_-_White">
      <rect width="35" height="35"/>
    </clipPath>
  </defs>
  <g id="What_s_App_-_White" data-name="What’s App - White" clip-path="url(#clip-What_s_App_-_White)">
    <g id="whatsapp-3" transform="translate(3 3)">
      <path id="Path_71968" data-name="Path 71968" d="M24.265,4.139a14.244,14.244,0,0,0-20.074,0A13.981,13.981,0,0,0,0,14.118v.007A14.054,14.054,0,0,0,1.734,20.8l-1.7,7.7,7.794-1.773a14.265,14.265,0,0,0,6.4,1.52h.006A14.2,14.2,0,0,0,24.28,24.112a13.973,13.973,0,0,0-.015-19.973ZM14.236,26.023h-.005a12.023,12.023,0,0,1-5.715-1.449l-.369-.2L2.965,25.553,4.09,20.437l-.217-.374a11.89,11.89,0,0,1-1.649-5.94A12.008,12.008,0,0,1,22.7,5.714a11.824,11.824,0,0,1,3.553,8.414A11.971,11.971,0,0,1,14.236,26.023Zm0,0" fill="#fff"/>
      <path id="Path_71969" data-name="Path 71969" d="M141.5,141.863h-.624a1.2,1.2,0,0,0-.868.406,3.634,3.634,0,0,0-1.14,2.707,6.3,6.3,0,0,0,1.33,3.357c.163.217,2.253,3.6,5.563,4.9,2.751,1.081,3.311.866,3.908.812a3.288,3.288,0,0,0,2.2-1.543,2.705,2.705,0,0,0,.19-1.543c-.082-.135-.3-.216-.624-.379s-1.922-.961-2.22-1.069-.516-.162-.733.163-.857,1.075-1.047,1.292-.38.244-.706.082a9,9,0,0,1-2.608-1.617,9.977,9.977,0,0,1-1.83-2.282c-.19-.325-.02-.5.143-.662.146-.145.344-.344.507-.533a2.194,2.194,0,0,0,.318-.541.6.6,0,0,0-.027-.568c-.082-.162-.706-1.767-1-2.409h0C141.988,141.891,141.731,141.873,141.5,141.863Zm0,0" transform="translate(-131.137 -133.967)" fill="#fff"/>
    </g>
  </g>
</svg>
